<?xml version="1.0" encoding="utf-8"?>
<!-- Generator: Adobe Illustrator 23.0.3, SVG Export Plug-In . SVG Version: 6.00 Build 0)  -->
<svg version="1.1" id="Layer_1" xmlns="http://www.w3.org/2000/svg" xmlns:xlink="http://www.w3.org/1999/xlink" x="0px" y="0px"
	 viewBox="0 0 210 85" style="enable-background:new 0 0 210 85;" xml:space="preserve">
<style type="text/css">
	.st0{fill:#FFFFFF;}
</style>
<g>
	<path class="st0" d="M175,76.18l1.42,9.25l3.4,22.13l0.81,5.28l2.86-4.51l6.71-10.59l2.68-4.23l-0.48,10.52l-0.83,18.05l-0.12,2.61
		l2.55-0.56l8.22-1.81l3.16-0.7l-7.46,10.5l-9.63,13.55l-12.68-3.91l-0.59-0.18l-0.59,0.18l-12.68,3.91l-9.63-13.55l-7.46-10.5
		l3.16,0.7l8.22,1.81l2.55,0.56l-0.12-2.61l-0.83-18.05l-0.48-10.52l2.68,4.23l6.71,10.59l2.86,4.51l0.81-5.28l3.4-22.13L175,76.18
		 M175,63l-3.4,22.13l-3.4,22.13l-6.71-10.59l-6.71-10.59l0.82,18.05l0.83,18.05l-8.22-1.81l-8.22-1.81l10.47,14.73L160.94,148
		l14.06-4.33l14.06,4.33l10.47-14.73L210,118.55l-8.22,1.81l-8.22,1.81l0.83-18.05l0.83-18.05l-6.71,10.59l-6.71,10.59l-3.4-22.13
		L175,63L175,63z"/>
</g>
<g>
	<path class="st0" d="M105,43.18l1.42,9.25l3.4,22.13l0.81,5.28l2.86-4.51l6.71-10.59l2.68-4.23l-0.48,10.52l-0.83,18.05l-0.12,2.61
		l2.55-0.56l8.22-1.81l3.16-0.7l-7.46,10.5l-9.63,13.55l-12.68-3.91l-0.59-0.18l-0.59,0.18l-12.68,3.91L82.1,99.11l-7.46-10.5
		l3.16,0.7l8.22,1.81l2.55,0.56l-0.12-2.61l-0.83-18.05l-0.48-10.52l2.68,4.23l6.71,10.59l2.86,4.51l0.81-5.28l3.4-22.13L105,43.18
		 M105,30l-3.4,22.13l-3.4,22.13L91.5,63.67l-6.71-10.59l0.82,18.05l0.83,18.05l-8.22-1.81L70,85.55l10.47,14.73L90.94,115
		l14.06-4.33l14.06,4.33l10.47-14.73L140,85.55l-8.22,1.81l-8.22,1.81l0.83-18.05l0.83-18.05l-6.71,10.59l-6.71,10.59l-3.4-22.13
		L105,30L105,30z"/>
</g>
<g>
	<path class="st0" d="M35,13.18l1.42,9.25l3.4,22.13l0.81,5.28l2.86-4.51l6.71-10.59l2.68-4.23l-0.48,10.52l-0.83,18.05l-0.12,2.61
		l2.55-0.56l8.22-1.81l3.16-0.7l-7.46,10.5l-9.63,13.55l-12.68-3.91L35,78.57l-0.59,0.18l-12.68,3.91L12.1,69.11l-7.46-10.5
		l3.16,0.7l8.22,1.81l2.55,0.56l-0.12-2.61l-0.83-18.05l-0.48-10.52l2.68,4.23l6.71,10.59l2.86,4.51l0.81-5.28l3.4-22.13L35,13.18
		 M35,0l-3.4,22.13l-3.4,22.13L21.5,33.67l-6.71-10.59l0.82,18.05l0.83,18.05l-8.22-1.81L0,55.55l10.47,14.73L20.94,85L35,80.67
		L49.06,85l10.47-14.73L70,55.55l-8.22,1.81l-8.22,1.81l0.83-18.05l0.83-18.05L48.5,33.67l-6.71,10.59l-3.4-22.13L35,0L35,0z"/>
</g>
</svg>
