<?xml version="1.0" encoding="utf-8"?>
<!-- Generator: Adobe Illustrator 24.0.3, SVG Export Plug-In . SVG Version: 6.00 Build 0)  -->
<svg version="1.1" xmlns="http://www.w3.org/2000/svg" xmlns:xlink="http://www.w3.org/1999/xlink" x="0px" y="0px" width="384px"
	 height="128px" viewBox="0 0 384 128" style="enable-background:new 0 0 384 128;" xml:space="preserve">
<style type="text/css">
	.st0{display:none;}
	.st1{display:inline;}
	.st2{fill:none;stroke:#FFFFFF;stroke-width:2;stroke-miterlimit:10;}
</style>
<g id="misc_1_" class="st0">
	<g id="misc" class="st1">
		<g>
			<rect x="-439.4" y="-814.2" width="1024" height="768"/>
		</g>
	</g>
	<rect class="st1" width="384" height="128"/>
	<rect x="659.1" y="-575.8" class="st1" width="289.5" height="289.5"/>
</g>
<g id="scene_1_">
	<path id="earth" class="st2" d="M52.5-572.3l13.7,2.5l3.2,6.8l-9,7.6l-4.5-4.2l-1-0.2l-8.2,1.2l-4.8-1.8l-11.4,8.6l-0.4,5.9
		l4.5,2.4l5.4-3.1l2.4-3.3l11.4-4.3l2.9,1.1L60-550l1.1,4.4l-2,3.4l-0.2,1.8l1.8,0.1l1.2-0.4l0.3,0.7l-2,7.7L47-530.9l-5,3.6
		l-21.6,5.2l-3.8-0.6l-16.1,8.8l-2.2,14.1l-2.1,1l-1.5-1.7l-1.8-5.7l-4.5-5.6l-14.2,0.7l-9.8,8.4l-1.1,10.2l5.6,2.7l2.6-0.6l3.1,1.2
		l0.1,3l-3.3,3l0.8,6l-0.2,10.7l3.7,4.9l3.4,1.9l16-4.5l37.2,23.9l9.8,17.1l18,8.8l2.4,8l-24.4,34.9l-6.4,2l-29,31l-4.2,10.8
		l2.6,15.6l-3.8-1.5l-10.8-11.2l-4.5-73.2l-14.3-15.1l-2.1-18.7l10.8-22.6l-2.8-4.4l-4.6-3.5l-2.1-7.8l-4.3-4.7l-0.4-2.6l0.6-3.6
		l-9.8-6.1l-3.5-15.3 M156.2-547.7l-10.9-0.2l-8.4,0.9l-0.2,0.5l0.8,10.8l12.3,8.9l4.5,0.6l1.2,10.2l-15.3,3.6l-6.7,8.9l7.6,11.8
		l7.2,2l6.7-1.9l1.8-10.6l8.6,5.1h3.6l0.2,3.5l1.9,2.6l2.8-0.5l3.4-1.2l6.7,2.3l0.6,1.7l5,4.6l4.9,1.5l4.6,7.4l0.4,2.5l-11.3-0.6
		l-14.9-10l-25.4-2.6l-10.9,3.1l-18.8,18l-3.9,30.7l3,7.1l13.3,11.2l32.4,6.1l1.1-0.5l2.3,1.1v9.2l-1.7,4.4v13.6l1.1,3l-0.8,9.6
		L154.3-350l0.2,14.9l-7.2,16.3l0.7,3.1h9.3l0,0 M72.4-573l0.4,6.5l-3.1,8.5l4.3,13l4.4,3.4l0,0l15.4-14.9l2-0.3l1.4-0.9l4.9-12.9
		 M131.1-529.3l-3.7,2.9l2,3.5l4.1-1.9l1.2,5.8l4.1,3.2l6-3.3L133.1-534l-2.5,0.3l-0.3,1.8L131.1-529.3L131.1-529.3z M99.4-542.5
		l2.5-6.8l-3.6-1.9l-6.8,2.5l-0.6,3.8L99.4-542.5L99.4-542.5z M-13.6-489.3L5-486.7l0.9-0.8l-0.7-1l-11.6-3.7L-13.6-489.3
		L-13.6-489.3z M0.6-478.7l12.3,1.9l0.8-3.2l-5.2-2.7L0.6-478.7L0.6-478.7z M59.1-574.1l-48.4,13.3l-40.9,29l-28.5,41.3L-71.4-442
		l4.7,50l21.5,45.4l35.7,35.3l45.6,20.9l50,4.1l48.4-13.3l40.9-29l28.5-41.3l12.7-48.5l-4.7-50l-21.5-45.4l-35.7-35.3L109.2-570
		L59.1-574.1z"/>
	<path id="earth_1_" class="st2" d="M783-572.3l13.7,2.5l3.2,6.8l-9,7.6l-4.5-4.2l-1-0.2l-8.2,1.2l-4.8-1.8l-11.4,8.6l-0.4,5.9
		l4.5,2.4l5.4-3.1l2.4-3.3l11.4-4.3l2.9,1.1l3.2,3.1l1.1,4.4l-2,3.4l-0.2,1.8l1.8,0.1l1.2-0.4l0.3,0.7l-2,7.7l-13.1,1.4l-5,3.6
		l-21.6,5.2l-3.8-0.6l-16.1,8.8l-2.2,14.1l-2.1,1l-1.5-1.7l-1.8-5.7l-4.5-5.6l-14.2,0.7l-9.8,8.4l-1.1,10.2l5.6,2.7l2.6-0.6l3.1,1.2
		l0.1,3l-3.3,3l0.8,6l-0.2,10.7l3.7,4.9l3.4,1.9l16-4.5l37.2,23.9l9.8,17.1l18,8.8l2.4,8l-24.4,34.9l-6.4,2l-29,31l-4.2,10.8
		l2.6,15.6l-3.8-1.5L717-324.8l-4.5-73.2l-14.3-15.1l-2.1-18.7l10.8-22.6l-2.8-4.4l-4.6-3.5l-2.1-7.8l-4.3-4.7l-0.4-2.6l0.6-3.6
		l-9.8-6.1l-3.5-15.3 M886.7-547.7l-10.9-0.2l-8.4,0.9l-0.2,0.5l0.8,10.8l12.3,8.9l4.5,0.6L886-516l-15.3,3.6l-6.7,8.9l7.6,11.8
		l7.2,2l6.7-1.9l1.8-10.6l8.6,5.1h3.6l0.2,3.5l1.9,2.6l2.8-0.5l3.4-1.2l6.7,2.3l0.6,1.7l5,4.6l4.9,1.5l4.6,7.4l0.4,2.5l-11.3-0.6
		l-14.9-10l-25.4-2.6l-10.9,3.1l-18.8,18l-3.9,30.7l3,7.1l13.3,11.2l32.4,6.1l1.1-0.5l2.3,1.1v9.2l-1.7,4.4v13.6l1.1,3l-0.8,9.6
		L884.8-350l0.2,14.9l-7.2,16.3l0.7,3.1h9.3l0,0 M802.9-573l0.4,6.5l-3.1,8.5l4.3,13l4.4,3.4l0,0l15.4-14.9l2-0.3l1.4-0.9l4.9-12.9
		 M861.5-529.3l-3.7,2.9l2,3.5l4.1-1.9l1.2,5.8l4.1,3.2l6-3.3L863.6-534l-2.5,0.3l-0.3,1.8L861.5-529.3L861.5-529.3z M829.8-542.5
		l2.5-6.8l-3.6-1.9l-6.8,2.5l-0.6,3.8L829.8-542.5L829.8-542.5z M716.9-489.3l18.6,2.6l0.9-0.8l-0.7-1l-11.6-3.7L716.9-489.3
		L716.9-489.3z M731.1-478.7l12.3,1.9l0.8-3.2l-5.2-2.7L731.1-478.7L731.1-478.7z M789.6-574.1l-48.4,13.3l-40.9,29l-28.5,41.3
		L659.1-442l4.7,50l21.5,45.4l35.7,35.3l45.6,20.9l50,4.1l48.4-13.3l40.9-29l28.5-41.3l12.7-48.5l-4.7-50l-21.5-45.4l-35.7-35.3
		L839.6-570L789.6-574.1z"/>
	<polygon class="st2" points="59.9,-607 73.9,-608.1 77.9,-627.9 80.6,-645 88.1,-644.4 87.6,-637.8 83.6,-638 75.4,-596.6 
		77.6,-580.9 73.4,-581.7 70.4,-592.8 64.1,-590.6 61.2,-581.1 56.9,-580.4 56.5,-588.6 39.4,-581.1 54.8,-599.6 	"/>
	<g>
		<polygon class="st2" points="182.6,67.7 196.8,66.6 214.4,37.1 222,37.8 221.5,44.4 217.4,44.2 198.3,78.2 208.5,92.2 202.7,92.2 
			193.2,82 186.9,84.2 180.3,92.2 175.6,92.2 179.2,86.2 162,90.6 177.5,75.2 182.6,67.7 		"/>
	</g>
	<g>
		<polygon class="st2" points="342.4,35.8 324.8,65.3 310.6,66.4 305.5,73.9 290,89.3 307.2,84.9 313,88.3 309.4,92.2 315.3,92.2 
			316.6,90.4 319.8,92.2 324.4,92.2 319,87 326.3,76.9 345.4,42.9 349.5,43.1 350,36.5 		"/>
	</g>
	<g>
		<polygon class="st2" points="71.3,65.4 85.5,64.4 89.6,44.3 92.2,27.1 99.7,27.8 99.3,34.4 95.2,34.2 87,75.9 89.3,91.8 85,91 
			81.9,79.7 75.6,82 72.7,91.5 68.4,92.2 68,84 50.7,91.5 66.2,73 71.3,65.4 		"/>
	</g>
</g>
</svg>
