<?xml version="1.0" encoding="utf-8"?>
<!-- Generator: Adobe Illustrator 24.0.3, SVG Export Plug-In . SVG Version: 6.00 Build 0)  -->
<svg version="1.1" id="Layer_1" xmlns="http://www.w3.org/2000/svg" xmlns:xlink="http://www.w3.org/1999/xlink" x="0px" y="0px"
	 width="50.6px" height="67px" viewBox="0 0 50.6 67" style="enable-background:new 0 0 50.6 67;" xml:space="preserve">
<style type="text/css">
	.st0{fill:none;stroke:#FF0000;stroke-miterlimit:10;}
</style>
<line class="st0" x1="49.6" y1="8" x2="45.5" y2="7.7"/>
<line class="st0" x1="50.1" y1="1.2" x2="49.6" y2="8"/>
<line class="st0" x1="42.4" y1="0.5" x2="50.1" y2="1.2"/>
<line class="st0" x1="39.8" y1="18" x2="42.4" y2="0.5"/>
<line class="st0" x1="35.6" y1="38.3" x2="39.8" y2="18"/>
<line class="st0" x1="21.2" y1="39.3" x2="35.6" y2="38.3"/>
<line class="st0" x1="16" y1="47" x2="21.2" y2="39.3"/>
<line class="st0" x1="0.4" y1="65.8" x2="16" y2="47"/>
<line class="st0" x1="17.8" y1="58.2" x2="0.4" y2="65.8"/>
<line class="st0" x1="18.2" y1="66.5" x2="17.8" y2="58.2"/>
<line class="st0" x1="22.7" y1="65.8" x2="18.2" y2="66.5"/>
<line class="st0" x1="25.6" y1="56.1" x2="22.7" y2="65.8"/>
<line class="st0" x1="32" y1="53.8" x2="25.6" y2="56.1"/>
<line class="st0" x1="35.1" y1="65.2" x2="32" y2="53.8"/>
<line class="st0" x1="39.5" y1="66.1" x2="35.1" y2="65.2"/>
<line class="st0" x1="37.2" y1="50" x2="39.5" y2="66.1"/>
<line class="st0" x1="45.5" y1="7.7" x2="37.2" y2="50"/>
</svg>
