<?xml version="1.0" encoding="UTF-8" standalone="no"?>
<!-- Generator: Gravit.io -->
<svg xmlns="http://www.w3.org/2000/svg" xmlns:xlink="http://www.w3.org/1999/xlink" style="isolation:isolate" viewBox="560 62.875 47.954 62.125" width="47.954pt" height="62.125pt"><mask id="_mask_H3AWCyCLUz5tDaDVY05XXuGvyqfhkk9R" x="-200%" y="-200%" width="400%" height="400%"><rect x="-200%" y="-200%" width="400%" height="400%" style="fill:white;"/><path d=" M 577.781 113.972 L 564 120.014 L 576.247 105.285 L 580.468 99.058 L 592.504 98.148 L 595.988 81.116 L 598.129 66.875 L 603.954 67.374 L 603.629 72.451 L 600.215 72.283 L 593.295 107.615 L 595.154 120.588 L 592.065 120.014 L 589.404 110.46 L 583.769 112.503 L 581.335 120.48 L 578.127 121 L 577.781 113.972 Z " fill="black" stroke="none"/></mask><path d=" M 577.781 113.972 L 564 120.014 L 576.247 105.285 L 580.468 99.058 L 592.504 98.148 L 595.988 81.116 L 598.129 66.875 L 603.954 67.374 L 603.629 72.451 L 600.215 72.283 L 593.295 107.615 L 595.154 120.588 L 592.065 120.014 L 589.404 110.46 L 583.769 112.503 L 581.335 120.48 L 578.127 121 L 577.781 113.972 Z " fill="none"/><path d=" M 577.781 113.972 L 564 120.014 L 576.247 105.285 L 580.468 99.058 L 592.504 98.148 L 595.988 81.116 L 598.129 66.875 L 603.954 67.374 L 603.629 72.451 L 600.215 72.283 L 593.295 107.615 L 595.154 120.588 L 592.065 120.014 L 589.404 110.46 L 583.769 112.503 L 581.335 120.48 L 578.127 121 L 577.781 113.972 Z " fill="none" mask="url(#_mask_H3AWCyCLUz5tDaDVY05XXuGvyqfhkk9R)" vector-effect="non-scaling-stroke" stroke-width="2" stroke="rgb(255,255,255)" stroke-linejoin="miter" stroke-linecap="butt" stroke-miterlimit="4"/></svg>