<?xml version="1.0" encoding="utf-8"?>
<!-- Generator: Adobe Illustrator 24.0.1, SVG Export Plug-In . SVG Version: 6.00 Build 0)  -->
<svg version="1.1" id="Layer_1" xmlns="http://www.w3.org/2000/svg" xmlns:xlink="http://www.w3.org/1999/xlink" x="0px" y="0px"
	 width="128px" height="128px" viewBox="0 0 128 128" style="enable-background:new 0 0 128 128;" xml:space="preserve">
<g>
	<polygon style="fill:#FFFFFF;" points="53.17,100.95 27.74,112.1 50.34,84.92 58.13,73.43 80.34,71.75 86.77,40.32 90.72,14.04 
		101.47,14.96 100.87,24.33 94.57,24.02 81.8,89.22 85.23,113.16 79.53,112.1 74.62,94.47 64.22,98.24 59.73,112.96 53.81,113.92 	
		"/>
	<path d="M91.15,14.58l9.79,0.84l-0.54,8.39l-5.37-0.26l-0.86-0.04L94,24.35L81.33,89.04l-0.03,0.17l0.02,0.17l3.31,23.17
		l-4.71-0.88l-4.68-16.81l-0.29-1.04l-1.02,0.37l-9.66,3.51l-0.47,0.17l-0.15,0.48l-4.33,14.18l-5.05,0.81l-0.57-11.69l-0.07-1.45
		l-1.33,0.58l-22.83,10.01l21.25-25.55l0.03-0.04l0.03-0.04l7.63-11.25L80,72.28l0.75-0.06l0.15-0.74l6.35-31.06l0.01-0.03l0-0.03
		L91.15,14.58 M90.3,13.5l-4.01,26.72l-6.35,31.06l-22.07,1.67l-7.9,11.65L26,113.41l26.71-11.71l0.63,12.8l6.77-1.09l4.51-14.78
		l9.66-3.51l4.84,17.41l6.69,1.25l-3.51-24.55l12.67-64.69l6.36,0.31L102,14.5L90.3,13.5L90.3,13.5z"/>
</g>
</svg>
