<?xml version="1.0" encoding="utf-8"?>
<!-- Generator: Adobe Illustrator 24.0.1, SVG Export Plug-In . SVG Version: 6.00 Build 0)  -->
<svg version="1.1" id="Layer_1" xmlns="http://www.w3.org/2000/svg" xmlns:xlink="http://www.w3.org/1999/xlink" x="0px" y="0px"
	 width="291px" height="291px" viewBox="0 0 291 291" style="enable-background:new 0 0 291 291;" xml:space="preserve">
<path style="fill:none;stroke:#FFFFFF;stroke-miterlimit:10;" d="M125.42,3.44l13.7,2.52l3.16,6.78l-9.03,7.59l-4.51-4.22
	l-0.97-0.25l-8.22,1.25l-4.8-1.84l-11.35,8.65l-0.35,5.89l4.48,2.39l5.39-3.12l2.4-3.28l11.45-4.32l2.89,1.09l3.18,3.14l1.11,4.36
	l-2,3.41l-0.18,1.84l1.79,0.05l1.22-0.44l0.26,0.74l-2.01,7.68l-13.05,1.42l-5.03,3.61l-21.6,5.15l-3.81-0.55l-16.09,8.84
	L71.2,75.96l-2.08,1.04l-1.54-1.66l-1.77-5.72l-4.47-5.65l-14.25,0.74l-9.8,8.37l-1.12,10.23l5.62,2.67l2.63-0.55l3.06,1.23
	l0.08,3.02l-3.3,3.03l0.82,5.95l-0.2,10.7l3.73,4.88l3.35,1.94l16.02-4.54l37.17,23.91l9.78,17.11l17.99,8.76l2.37,7.97l-24.4,34.88
	l-6.38,2.01l-29.04,31.01l-4.21,10.77l2.62,15.61l-3.77-1.51l-10.76-11.23l-4.47-73.16l-14.27-15.1l-2.13-18.68l10.78-22.61
	l-2.78-4.42l-4.61-3.48l-2.12-7.76l-4.31-4.66l-0.38-2.64l0.63-3.61l-9.83-6.08l-3.52-15.3 M229.08,28.01l-10.93-0.16l-8.37,0.94
	l-0.17,0.5l0.82,10.81l12.34,8.88l4.47,0.61l1.15,10.19l-15.34,3.58l-6.69,8.88L214,84.05l7.25,2l6.71-1.9l1.78-10.58l8.58,5.1
	l3.6-0.04l0.25,3.47l1.85,2.56l2.77-0.52l3.36-1.18l6.69,2.34l0.57,1.66l5.01,4.6l4.86,1.48l4.61,7.36l0.41,2.54l-11.28-0.6
	l-14.85-10l-25.44-2.55l-10.88,3.09l-18.82,17.96l-3.93,30.67l2.96,7.15l13.28,11.23l32.42,6.14l1.15-0.52l2.26,1.11l-0.04,9.19
	l-1.67,4.44l-0.03,13.57l1.08,2.97l-0.8,9.65L227,225.75l0.2,14.93l-7.17,16.28l0.66,3.06l9.3,0.04h0.01 M145.27,2.7l0.42,6.53
	l-3.13,8.52l4.33,13.03l4.37,3.41l0,0l15.44-14.88l2.03-0.32l1.39-0.9l4.91-12.95 M203.92,46.42l-3.74,2.91l1.99,3.52l4.11-1.89
	l1.19,5.85l4.14,3.2l5.98-3.26l-11.61-14.91l-2.51,0.31l-0.26,1.83L203.92,46.42L203.92,46.42z M172.24,33.19l2.46-6.81l-3.6-1.91
	l-6.76,2.49l-0.58,3.81L172.24,33.19L172.24,33.19z M59.3,86.42l18.56,2.57l0.9-0.75l-0.69-0.97L66.5,83.45L59.3,86.42L59.3,86.42z
	 M73.53,96.97l12.33,1.87l0.84-3.22l-5.24-2.66L73.53,96.97L73.53,96.97z M132.06,1.62l-48.4,13.27L42.72,43.92L14.18,85.2
	l-12.7,48.55l4.67,49.97l21.48,45.36l35.7,35.28l45.61,20.94l50.02,4.08l48.4-13.27l40.94-29.03l28.54-41.28l12.7-48.55l-4.67-49.97
	l-21.48-45.36l-35.7-35.28L182.08,5.7L132.06,1.62z"/>
</svg>
