<?xml version="1.0" encoding="utf-8"?>
<!-- Generator: Adobe Illustrator 24.0.3, SVG Export Plug-In . SVG Version: 6.00 Build 0)  -->
<svg version="1.1" id="Layer_1" xmlns="http://www.w3.org/2000/svg" xmlns:xlink="http://www.w3.org/1999/xlink" x="0px" y="0px"
	 width="71px" height="87px" viewBox="0 0 71 87" style="enable-background:new 0 0 71 87;" xml:space="preserve">
<style type="text/css">
	.st0{fill:#FFFFFF;}
</style>
<g>
	<polygon class="st0" points="1.2,57.6 17.2,61.2 15.6,25.5 28.9,46.7 35.5,3.3 42.1,46.7 55.4,25.5 53.8,61.2 69.8,57.6 49.6,86.4 
		35.5,82 21.4,86.4 	"/>
	<path d="M35.5,6.7l2.5,16.1l3.4,22.6l0.4,2.7l1.4-2.3L50,35l4.8-7.6L54.1,42l-0.8,18.5l-0.1,1.3l1.3-0.3l8.3-1.9l5.8-1.3l-9.1,13
		L49.4,85.8l-13.6-4.2l-0.3-0.1l-0.3,0.1l-13.6,4.2L11.4,71.3l-9.1-13l5.8,1.3l8.3,1.9l1.3,0.3l-0.1-1.3L16.8,42l-0.7-14.7L21,35
		l6.8,10.8l1.4,2.3l0.4-2.7L33,22.8L35.5,6.7 M35.5,0L32,22.6l-3.4,22.6l-6.8-10.8L15,23.6l0.8,18.5l0.8,18.5l-8.3-1.9L0,56.8
		l10.6,15.1L21.2,87l14.3-4.4L49.8,87l10.6-15.1L71,56.8l-8.3,1.9l-8.3,1.9l0.8-18.5L56,23.6l-6.8,10.8l-6.8,10.8l-3.4-22.6L35.5,0
		L35.5,0z"/>
</g>
</svg>
