<?xml version="1.0" encoding="utf-8"?>
<!-- Generator: Adobe Illustrator 24.0.1, SVG Export Plug-In . SVG Version: 6.00 Build 0)  -->
<svg version="1.1" xmlns="http://www.w3.org/2000/svg" xmlns:xlink="http://www.w3.org/1999/xlink" x="0px" y="0px" width="1024px"
	 height="768px" viewBox="0 0 1024 768" style="enable-background:new 0 0 1024 768;" xml:space="preserve">
<style type="text/css">
	.st0{fill:none;stroke:#FFFFFF;stroke-miterlimit:10;}
</style>
<g id="misc">
	<g>
		<rect width="1024" height="768"/>
	</g>
</g>
<g id="scene">
	<g id="bronto">
		<polygon class="st0" points="499.2,207.2 513.3,206.1 517.3,186.3 519.9,169.2 527.4,169.8 527,176.4 522.9,176.2 514.8,217.6 
			517,233.3 512.8,232.5 509.7,221.4 503.5,223.6 500.6,233.1 496.3,233.8 495.9,225.6 478.8,233.1 494.1,214.6 499.2,207.2 		"/>
	</g>
	<path id="earth" class="st0" d="M491.9,241.9l13.7,2.5l3.2,6.8l-9,7.6l-4.5-4.2l-1-0.2l-8.2,1.2l-4.8-1.8l-11.4,8.6l-0.4,5.9
		l4.5,2.4l5.4-3.1l2.4-3.3l11.4-4.3l2.9,1.1l3.2,3.1l1.1,4.4l-2,3.4l-0.2,1.8l1.8,0.1l1.2-0.4l0.3,0.7l-2,7.7l-13.1,1.4l-5,3.6
		l-21.6,5.2l-3.8-0.6l-16.1,8.8l-2.2,14.1l-2.1,1l-1.5-1.7l-1.8-5.7l-4.5-5.6l-14.2,0.7l-9.8,8.4l-1.1,10.2l5.6,2.7l2.6-0.6l3.1,1.2
		l0.1,3l-3.3,3l0.8,6l-0.2,10.7l3.7,4.9l3.4,1.9l16-4.5l37.2,23.9l9.8,17.1l18,8.8l2.4,8l-24.4,34.9l-6.4,2l-29,31l-4.2,10.8
		l2.6,15.6l-3.8-1.5l-10.8-11.2l-4.5-73.2l-14.3-15.1l-2.1-18.7l10.8-22.6l-2.8-4.4l-4.6-3.5l-2.1-7.8l-4.3-4.7l-0.4-2.6l0.6-3.6
		l-9.8-6.1l-3.5-15.3 M595.6,266.5l-10.9-0.2l-8.4,0.9l-0.2,0.5l0.8,10.8l12.3,8.9l4.5,0.6l1.2,10.2l-15.3,3.6l-6.7,8.9l7.6,11.8
		l7.2,2l6.7-1.9l1.8-10.6l8.6,5.1l3.6,0l0.2,3.5l1.9,2.6l2.8-0.5l3.4-1.2l6.7,2.3l0.6,1.7l5,4.6l4.9,1.5l4.6,7.4l0.4,2.5l-11.3-0.6
		l-14.9-10l-25.4-2.6l-10.9,3.1l-18.8,18l-3.9,30.7l3,7.1l13.3,11.2l32.4,6.1l1.1-0.5l2.3,1.1l0,9.2l-1.7,4.4l0,13.6l1.1,3l-0.8,9.6
		l-10.7,19.3l0.2,14.9l-7.2,16.3l0.7,3.1l9.3,0h0 M511.8,241.2l0.4,6.5l-3.1,8.5l4.3,13l4.4,3.4l0,0l15.4-14.9l2-0.3l1.4-0.9
		l4.9-12.9 M570.4,284.9l-3.7,2.9l2,3.5l4.1-1.9l1.2,5.8l4.1,3.2l6-3.3l-11.6-14.9l-2.5,0.3l-0.3,1.8L570.4,284.9L570.4,284.9z
		 M538.7,271.7l2.5-6.8l-3.6-1.9l-6.8,2.5l-0.6,3.8L538.7,271.7L538.7,271.7z M425.8,324.9l18.6,2.6l0.9-0.8l-0.7-1L433,322
		L425.8,324.9L425.8,324.9z M440,335.5l12.3,1.9l0.8-3.2l-5.2-2.7L440,335.5L440,335.5z M498.5,240.1l-48.4,13.3l-40.9,29
		l-28.5,41.3L368,372.2l4.7,50l21.5,45.4l35.7,35.3l45.6,20.9l50,4.1l48.4-13.3l40.9-29l28.5-41.3l12.7-48.5l-4.7-50l-21.5-45.4
		l-35.7-35.3l-45.6-20.9L498.5,240.1z"/>
</g>
</svg>
