<svg>
<polygon class="st0" points="72.5,45.6 71.8,58.8 71.7,60.1 72.8,60.7 82.9,65.9 79.7,73.7 69.7,79.2 63.3,75.8 62.3,75.3
	61.3,75.8 52.4,80.9 46.4,72.7 48.8,63.9 48.9,63.4 48.7,62.9 46.5,55.6 60.2,45.8 "/>
<polygon class="st0" points="203.5,45.7 211.8,53.4 206.1,64 205.8,64.6 205.9,65.2 207.1,74.1 201.9,81.3 185.1,81.3 174.3,70.8
	180.8,64 181.8,63 181.1,61.7 177.8,55.6 189.8,58.4 192.6,59 192.3,56.2 191,45.7 "/>
<polygon class="st0" points="77.6,174.2 85.6,179.4 85.6,190 85.6,199.3 72.3,209.3 58.3,209.3 59.2,199.7 59.3,198.8 58.6,198.1
	45.4,185.1 56.4,178.2 65.5,181 66.4,181.3 67.2,180.8 "/>
<polygon class="st0" points="197.4,173.4 210.2,181.9 210.2,185.8 210.2,186.1 210.3,186.3 213.1,197.4 201,209.4 192.4,202.9
	191.5,202.2 190.4,202.7 178.1,208.3 172.5,194.3 172.5,182.6 183.6,181.5 184.1,181.5 184.5,181.3 "/>
</svg>
