<?xml version="1.0" encoding="utf-8"?>
<!-- Generator: Adobe Illustrator 24.0.1, SVG Export Plug-In . SVG Version: 6.00 Build 0)  -->
<svg version="1.1" id="Layer_1" xmlns="http://www.w3.org/2000/svg" xmlns:xlink="http://www.w3.org/1999/xlink" x="0px" y="0px"
	 viewBox="0 0 128 128" style="enable-background:new 0 0 128 128;" xml:space="preserve">
<style type="text/css">
	.st0{opacity:0.02;fill:#FFFFFF;}
	.st1{fill:none;stroke:#000000;stroke-width:2;stroke-miterlimit:10;}
</style>
<g>
	<g>
		<polyline class="st0" points="95,93.72 88.17,104.23 63.99,110.6 39.83,104.23 33,93.72 		"/>
		<polyline class="st1" points="95,93.72 88.17,104.23 63.99,110.6 39.83,104.23 33,93.72 		"/>
	</g>
	<line class="st1" x1="64" y1="60.6" x2="32.17" y2="84.24"/>
	<line class="st1" x1="64" y1="60.6" x2="95.83" y2="84.24"/>
	<g>
		<polyline class="st0" points="94.56,63.3 99,53.77 88.75,28.05 64,17.4 39.25,28.05 29,53.77 33.44,63.3 		"/>
		<polyline class="st1" points="94.56,63.3 99,53.77 88.75,28.05 64,17.4 39.25,28.05 29,53.77 33.44,63.3 		"/>
	</g>
	<g>
		<polygon class="st0" points="8.42,78.12 33.68,93.88 94.32,93.88 119.58,78.12 94.32,63.6 64,59.87 33.68,63.6 		"/>
		<polygon class="st1" points="8.42,78.12 33.68,93.88 94.32,93.88 119.58,78.12 94.32,63.6 64,59.87 33.68,63.6 		"/>
	</g>
	<g>
		<polyline class="st1" points="8.42,78.12 33.68,84.44 94.32,84.44 119.58,78.12 		"/>
	</g>
	<g>
		<line class="st1" x1="88.99" y1="82.73" x2="88.99" y2="82.72"/>
	</g>
</g>
</svg>
