<?xml version="1.0" encoding="UTF-8" standalone="no"?><!-- Generator: Gravit.io --><svg xmlns="http://www.w3.org/2000/svg" xmlns:xlink="http://www.w3.org/1999/xlink" style="isolation:isolate" viewBox="0 0 121.16 108.2" width="121.16pt" height="108.2pt"><defs><clipPath id="_clipPath_UaUzHIqeSqYeWLAzhFwX93yvm7jK5d78"><rect width="121.16" height="108.2"/></clipPath></defs><g clip-path="url(#_clipPath_UaUzHIqeSqYeWLAzhFwX93yvm7jK5d78)"><path d=" M 91.14 86.48 L 84.75 96.83 L 60.57 103.2 L 36.41 96.83 L 30.02 86.32" fill="none" vector-effect="non-scaling-stroke" stroke-width="1" stroke="rgb(0,0,0)" stroke-linejoin="miter" stroke-linecap="butt" stroke-miterlimit="10"/><mask id="_mask_DqBZ3hqgPuTlDaO1Y27g16pud6kqvbyX" x="-200%" y="-200%" width="400%" height="400%"><rect x="-200%" y="-200%" width="400%" height="400%" style="fill:white;"/><path d=" M 91.14 55.9 L 95.58 46.37 L 85.33 20.65 L 60.58 10 L 35.83 20.65 L 25.58 46.37 L 30.02 55.9" fill="black" stroke="none"/></mask><path d=" M 91.14 55.9 L 95.58 46.37 L 85.33 20.65 L 60.58 10 L 35.83 20.65 L 25.58 46.37 L 30.02 55.9" fill="none" mask="url(#_mask_DqBZ3hqgPuTlDaO1Y27g16pud6kqvbyX)" vector-effect="non-scaling-stroke" stroke-width="2" stroke="rgb(0,0,0)" stroke-linejoin="miter" stroke-linecap="butt" stroke-miterlimit="10"/><path d=" M 91.14 55.9 L 95.58 46.37 L 85.33 20.65 L 60.58 10 L 35.83 20.65 L 25.58 46.37 L 30.02 55.9" fill="none"/><path d=" M 5 70.72 L 30.26 86.48 L 90.9 86.48 L 116.16 70.72 L 90.9 56.2 L 60.58 52.47 L 30.26 56.2 L 5 70.72 Z " fill="none" vector-effect="non-scaling-stroke" stroke-width="1" stroke="rgb(0,0,0)" stroke-linejoin="miter" stroke-linecap="butt" stroke-miterlimit="10"/><path d=" M 5 70.72 L 30.26 77.04 L 90.9 77.04 L 116.16 70.72" fill="none" vector-effect="non-scaling-stroke" stroke-width="1" stroke="rgb(0,0,0)" stroke-linejoin="miter" stroke-linecap="butt" stroke-miterlimit="10"/><line x1="60.58" y1="52.47" x2="90.9" y2="77.04" vector-effect="non-scaling-stroke" stroke-width="1" stroke="rgb(0,0,0)" stroke-linejoin="miter" stroke-linecap="square" stroke-miterlimit="3"/><line x1="60.58" y1="52.47" x2="30.26" y2="77.04" vector-effect="non-scaling-stroke" stroke-width="1" stroke="rgb(0,0,0)" stroke-linejoin="miter" stroke-linecap="square" stroke-miterlimit="3"/></g></svg>